<?xml version="1.0" encoding="UTF-8"?>
<svg id="Layer_1" data-name="Layer 1" xmlns="http://www.w3.org/2000/svg" viewBox="0 0 1913.62 512">
  <defs>
    <style>
      .cls-1, .cls-2 {
        fill: #1a2938;
      }

      .cls-3 {
        font-family: Outfit-Medium, Outfit;
        font-variation-settings: 'wght' 500;
        font-weight: 500;
      }

      .cls-4 {
        fill: #fff;
        stroke: #ccc7ff;
        stroke-miterlimit: 10;
        stroke-width: .93px;
      }

      .cls-2 {
        font-size: 272px;
      }

      .cls-5 {
        font-family: Outfit-ExtraLight, Outfit;
        font-variation-settings: 'wght' 200;
        font-weight: 200;
      }
    </style>
  </defs>
  <rect class="cls-1" width="512" height="512"/>
  <path class="cls-4" d="M188.48,236.19c0-10.14-.24-20.37,.05-30.59,.54-18.78-.17-37.76,2.44-56.27,4.91-34.89,36.8-63.4,71.87-64.23,45.19-1.07,90.41-.54,135.62-.68,.73,0,1.45,.3,2.29,.48,.2,.87,.46,1.6,.52,2.34q1.34,15.68-14.27,15.66c-39.19,.03-78.39,.88-117.55-.09-33.24-.82-56.55,24.8-60.86,52.27-2.6,16.61-3.39,63.95-.81,81.96h159.39v18.51H206.91v171.17c-5.4,0-10.2,.16-14.98-.13-1.03-.06-2.04-1.7-2.91-2.75-.3-.37-.26-1.15-.15-1.7,2.44-12.23-4.96-18.78-13.56-25.49-18.56-14.47-35.66-30.51-48.75-50.37-10.72-16.26-17.15-33.87-16.29-53.56,1.2-27.53,11.23-46.25,45.7-54.34,5.25-1.23,10.71-1.76,16.11-2.13,5.2-.35,10.44-.08,16.39-.08Zm-.18,19.32c-8.81,0-17.46-.08-26.1,.02-13.56,.16-28.17,11.07-32.08,27.39-3.76,15.71-1.22,30.35,6.26,44.34,10.06,18.82,24.93,33.43,41.26,46.73,3.23,2.63,6.55,5.15,10.66,8.36v-126.83Z"/>
  <text class="cls-2" transform="translate(561.13 324.41)"><tspan class="cls-3" x="0" y="0">Factur</tspan><tspan class="cls-5" x="796.14" y="0">app</tspan></text>
</svg>